<?xml version="1.0" encoding="utf-8"?><!DOCTYPE svg PUBLIC "-//W3C//DTD SVG 1.1//EN" "http://www.w3.org/Graphics/SVG/1.1/DTD/svg11.dtd"><svg version="1.1" xmlns="http://www.w3.org/2000/svg" xmlns:xlink="http://www.w3.org/1999/xlink" x="0px" y="0px" viewBox="0.761 15.555 100 88.78500000000001" enable-background="new 0.761 15.555 100 71.028" xml:space="preserve"><g><path d="M22.033,57.113c-4.521,0-8.193,3.678-8.193,8.196s3.673,8.195,8.193,8.195c4.521,0,8.194-3.677,8.194-8.194
		C30.229,60.791,26.554,57.113,22.033,57.113z"/><path d="M22.03,44.042c-11.728,0-21.269,9.539-21.269,21.269c0,11.729,9.542,21.272,21.269,21.272
		c11.73,0,21.276-9.544,21.276-21.272C43.307,53.581,33.76,44.042,22.03,44.042z M22.033,77.289
		c-6.604,0-11.978-5.372-11.978-11.979s5.373-11.98,11.978-11.98c6.605,0,11.978,5.374,11.978,11.98S28.638,77.289,22.033,77.289z"/><path d="M85.608,56.281c-8.355,0-15.146,6.795-15.146,15.148c0,8.354,6.79,15.152,15.146,15.152
		c8.352,0,15.152-6.798,15.152-15.152C100.761,63.076,93.96,56.281,85.608,56.281z M85.608,78.559c-3.938,0-7.129-3.191-7.129-7.129
		c0-3.938,3.19-7.127,7.129-7.127c3.938,0,7.131,3.188,7.131,7.127C92.739,75.367,89.546,78.559,85.608,78.559z"/><path d="M73.331,57.724c-3.168-2.479-8.267-5.54-15.18-7.045v-1.922c7.762,1.592,13.361,5.014,16.717,7.721
		c3.027-2.188,6.729-3.493,10.74-3.493c2.176,0,4.254,0.399,6.188,1.097c-0.203-4.749-0.79-9.751-2.372-10.35
		c-7.786-2.899-17.931-4.633-26.112-5.365V23.288c0-2.117,1.055-2.608,1.203-2.668c1.008-0.283,1.594-1.331,1.307-2.336
		c-0.284-1.003-1.318-1.582-2.335-1.303c-1.471,0.417-3.959,2.21-3.959,6.307v14.799c-0.579-0.033-1.125-0.053-1.668-0.075
		l-4.426-19.043c-0.173-0.739-0.767-1.304-1.513-1.435c-0.912-0.16-22.521-3.917-38.774-0.645c-1.023,0.206-1.688,1.203-1.484,2.228
		c0.206,1.024,1.199,1.693,2.229,1.481c0.226-0.045,0.461-0.076,0.688-0.118l-2.984,17.358c-0.005,0.036,0.008,0.072,0.003,0.111
		h-0.671c-3.576,0-4.288,2.306-4.288,2.306l-2.191,5.492l1.821,0.905c4.259-3.604,9.759-5.789,15.759-5.789
		c13.486,0,24.453,10.97,24.453,24.449c0,2.365-0.354,4.644-0.984,6.808H67.26c-0.009-0.25-0.037-0.496-0.037-0.75
		C67.223,65.953,69.59,61.093,73.331,57.724z M80.554,44.46c0.484-0.189,1.032,0.049,1.229,0.535l1.534,3.911
		c0.191,0.485-0.051,1.033-0.535,1.226c-0.114,0.042-0.229,0.064-0.347,0.064c-0.376,0-0.731-0.228-0.88-0.599l-1.536-3.911
		C79.829,45.2,80.068,44.65,80.554,44.46z M76.096,44.46c0.479-0.189,1.033,0.049,1.226,0.535l1.536,3.911
		c0.19,0.485-0.051,1.033-0.536,1.226c-0.114,0.042-0.23,0.064-0.347,0.064c-0.379,0-0.733-0.228-0.881-0.599l-1.534-3.911
		C75.369,45.2,75.608,44.65,76.096,44.46z M31.714,38.887c-1.487-0.487-2.923-0.838-4.184-0.938H15.417l2.795-16.257h13.502V38.887z
		 M54.365,53.455l-6.853-0.008c-2.275-6.108-7.151-10.472-12.016-12.994v-18.76h14.686l4.181,17.999v13.764H54.365z"/></g><text x="0.761" y="101.583" fill="#000000" font-size="5px" font-weight="bold" font-family="'Helvetica Neue', Helvetica, Arial-Unicode, Arial, Sans-serif">Created by Olivier Guin</text><text x="0.761" y="106.583" fill="#000000" font-size="5px" font-weight="bold" font-family="'Helvetica Neue', Helvetica, Arial-Unicode, Arial, Sans-serif">from the Noun Project</text></svg>